<svg width="946" height="1075" viewBox="0 0 946 1075" fill="none" xmlns="http://www.w3.org/2000/svg">
<g opacity="0.7">
<mask id="mask0_3_1159" style="mask-type:alpha" maskUnits="userSpaceOnUse" x="0" y="0" width="946" height="1075">
<rect width="946" height="1075" fill="url(#paint0_radial_3_1159)" fill-opacity="0.1"/>
</mask>
<g mask="url(#mask0_3_1159)">
<path d="M-54.6846 33.4735L-3.49436 1.18234L47.6959 33.4735V98.2143L-3.49436 130.506L-54.6846 98.2143V33.4735Z" stroke="white" stroke-width="2"/>
<path d="M48.7416 33.4735L99.9318 1.18234L151.122 33.4735V98.2143L99.9318 130.506L48.7416 98.2143V33.4735Z" stroke="white" stroke-width="2"/>
<path d="M152.168 33.4735L203.359 1.18234L254.549 33.4735V98.2143L203.359 130.506L152.168 98.2143V33.4735Z" stroke="white" stroke-width="2"/>
<path d="M255.595 33.4735L306.785 1.18234L357.975 33.4735V98.2143L306.785 130.506L255.595 98.2143V33.4735Z" stroke="white" stroke-width="2"/>
<path d="M359.021 33.4735L410.211 1.18234L461.401 33.4735V98.2143L410.211 130.506L359.021 98.2143V33.4735Z" stroke="white" stroke-width="2"/>
<path d="M462.447 33.4735L513.637 1.18234L564.827 33.4735V98.2143L513.637 130.506L462.447 98.2143V33.4735Z" stroke="white" stroke-width="2"/>
<path d="M565.873 33.4735L617.063 1.18234L668.254 33.4735V98.2143L617.063 130.506L565.873 98.2143V33.4735Z" stroke="white" stroke-width="2"/>
<path d="M669.299 33.4735L720.489 1.18234L771.68 33.4735V98.2143L720.489 130.506L669.299 98.2143V33.4735Z" stroke="white" stroke-width="2"/>
<path d="M772.726 33.4735L823.916 1.18234L875.107 33.4735V98.2143L823.916 130.506L772.726 98.2143V33.4735Z" stroke="white" stroke-width="2"/>
<path d="M876.152 33.4735L927.343 1.18234L978.533 33.4735V98.2143L927.343 130.506L876.152 98.2143V33.4735Z" stroke="white" stroke-width="2"/>
<path d="M-3.5346 129.598L47.6557 97.3066L98.8459 129.598V194.339L47.6557 226.63L-3.5346 194.339V129.598Z" stroke="white" stroke-width="2"/>
<path d="M99.8923 129.598L151.083 97.3066L202.273 129.598V194.339L151.083 226.63L99.8923 194.339V129.598Z" stroke="white" stroke-width="2"/>
<path d="M203.318 129.598L254.509 97.3066L305.699 129.598V194.339L254.509 226.63L203.318 194.339V129.598Z" stroke="white" stroke-width="2"/>
<path d="M306.745 129.598L357.935 97.3066L409.125 129.598V194.339L357.935 226.63L306.745 194.339V129.598Z" stroke="white" stroke-width="2"/>
<path d="M410.171 129.598L461.361 97.3066L512.551 129.598V194.339L461.361 226.63L410.171 194.339V129.598Z" stroke="white" stroke-width="2"/>
<path d="M513.597 129.598L564.787 97.3066L615.977 129.598V194.339L564.787 226.63L513.597 194.339V129.598Z" stroke="white" stroke-width="2"/>
<path d="M617.023 129.598L668.213 97.3066L719.404 129.598V194.339L668.213 226.63L617.023 194.339V129.598Z" stroke="white" stroke-width="2"/>
<path d="M720.45 129.598L771.64 97.3066L822.83 129.598V194.339L771.64 226.63L720.45 194.339V129.598Z" stroke="white" stroke-width="2"/>
<path d="M823.876 129.598L875.066 97.3066L926.256 129.598V194.339L875.066 226.63L823.876 194.339V129.598Z" stroke="white" stroke-width="2"/>
<path d="M-55.8108 225.722L-4.62052 193.431L46.5697 225.722V290.463L-4.62052 322.754L-55.8108 290.463V225.722Z" stroke="white" stroke-width="2"/>
<path d="M47.6161 225.722L98.8064 193.431L149.997 225.722V290.463L98.8064 322.754L47.6161 290.463V225.722Z" stroke="white" stroke-width="2"/>
<path d="M151.042 225.722L202.233 193.431L253.423 225.722V290.463L202.233 322.754L151.042 290.463V225.722Z" stroke="white" stroke-width="2"/>
<path d="M254.468 225.722L305.659 193.431L356.849 225.722V290.463L305.659 322.754L254.468 290.463V225.722Z" stroke="white" stroke-width="2"/>
<path d="M357.895 225.722L409.085 193.431L460.275 225.722V290.463L409.085 322.754L357.895 290.463V225.722Z" stroke="white" stroke-width="2"/>
<path d="M461.321 225.722L512.511 193.431L563.701 225.722V290.463L512.511 322.754L461.321 290.463V225.722Z" stroke="white" stroke-width="2"/>
<path d="M564.747 225.722L615.937 193.431L667.127 225.722V290.463L615.937 322.754L564.747 290.463V225.722Z" stroke="white" stroke-width="2"/>
<path d="M668.174 225.722L719.364 193.431L770.554 225.722V290.463L719.364 322.754L668.174 290.463V225.722Z" stroke="white" stroke-width="2"/>
<path d="M771.6 225.722L822.79 193.431L873.98 225.722V290.463L822.79 322.754L771.6 290.463V225.722Z" stroke="white" stroke-width="2"/>
<path d="M-4.66003 321.846L46.5302 289.555L97.7205 321.846V386.587L46.5302 418.878L-4.66003 386.587V321.846Z" stroke="white" stroke-width="2"/>
<path d="M98.7661 321.846L149.956 289.555L201.147 321.846V386.587L149.956 418.878L98.7661 386.587V321.846Z" stroke="white" stroke-width="2"/>
<path d="M202.192 321.846L253.382 289.555L304.573 321.846V386.587L253.382 418.878L202.192 386.587V321.846Z" stroke="white" stroke-width="2"/>
<path d="M305.618 321.846L356.809 289.555L407.999 321.846V386.587L356.809 418.878L305.618 386.587V321.846Z" stroke="white" stroke-width="2"/>
<path d="M409.045 321.846L460.235 289.555L511.425 321.846V386.587L460.235 418.878L409.045 386.587V321.846Z" stroke="white" stroke-width="2"/>
<path d="M512.471 321.846L563.661 289.555L614.851 321.846V386.587L563.661 418.878L512.471 386.587V321.846Z" stroke="white" stroke-width="2"/>
<path d="M615.898 321.846L667.088 289.555L718.278 321.846V386.587L667.088 418.878L615.898 386.587V321.846Z" stroke="white" stroke-width="2"/>
<path d="M719.324 321.846L770.514 289.555L821.704 321.846V386.587L770.514 418.878L719.324 386.587V321.846Z" stroke="white" stroke-width="2"/>
<path d="M822.306 321.846L873.497 289.555L924.687 321.846V386.587L873.497 418.878L822.306 386.587V321.846Z" stroke="white" stroke-width="2"/>
<path d="M-56.9361 417.971L-5.74589 385.679L45.4444 417.971V482.711L-5.74589 515.003L-56.9361 482.711V417.971Z" stroke="white" stroke-width="2"/>
<path d="M46.4899 417.971L97.6802 385.679L148.87 417.971V482.711L97.6802 515.003L46.4899 482.711V417.971Z" stroke="white" stroke-width="2"/>
<path d="M149.916 417.971L201.106 385.679L252.297 417.971V482.711L201.106 515.003L149.916 482.711V417.971Z" stroke="white" stroke-width="2"/>
<path d="M253.342 417.971L304.532 385.679L355.723 417.971V482.711L304.532 515.003L253.342 482.711V417.971Z" stroke="white" stroke-width="2"/>
<path d="M356.768 417.971L407.959 385.679L459.149 417.971V482.711L407.959 515.003L356.768 482.711V417.971Z" stroke="white" stroke-width="2"/>
<path d="M460.195 417.971L511.385 385.679L562.575 417.971V482.711L511.385 515.003L460.195 482.711V417.971Z" stroke="white" stroke-width="2"/>
<path d="M563.621 417.971L614.812 385.679L666.002 417.971V482.711L614.812 515.003L563.621 482.711V417.971Z" stroke="white" stroke-width="2"/>
<path d="M667.048 417.971L718.238 385.679L769.428 417.971V482.711L718.238 515.003L667.048 482.711V417.971Z" stroke="white" stroke-width="2"/>
<path d="M-5.78619 514.095L45.4041 481.804L96.5943 514.095V578.836L45.4041 611.127L-5.78619 578.836V514.095Z" stroke="white" stroke-width="2"/>
<path d="M97.64 514.095L148.83 481.804L200.02 514.095V578.836L148.83 611.127L97.64 578.836V514.095Z" stroke="white" stroke-width="2"/>
<path d="M201.066 514.095L252.256 481.804L303.447 514.095V578.836L252.256 611.127L201.066 578.836V514.095Z" stroke="white" stroke-width="2"/>
<path d="M304.492 514.095L355.683 481.804L406.873 514.095V578.836L355.683 611.127L304.492 578.836V514.095Z" stroke="white" stroke-width="2"/>
<path d="M407.918 514.095L459.109 481.804L510.299 514.095V578.836L459.109 611.127L407.918 578.836V514.095Z" stroke="white" stroke-width="2"/>
<path d="M511.345 514.095L562.536 481.804L613.726 514.095V578.836L562.536 611.127L511.345 578.836V514.095Z" stroke="white" stroke-width="2"/>
<path d="M614.771 514.095L665.962 481.804L717.152 514.095V578.836L665.962 611.127L614.771 578.836V514.095Z" stroke="white" stroke-width="2"/>
<path d="M-58.0624 610.219L-6.87211 577.928L44.3182 610.219V674.96L-6.87211 707.251L-58.0624 674.96V610.219Z" stroke="white" stroke-width="2"/>
<path d="M45.3638 610.219L96.554 577.928L147.744 610.219V674.96L96.554 707.251L45.3638 674.96V610.219Z" stroke="white" stroke-width="2"/>
<path d="M148.79 610.219L199.98 577.928L251.17 610.219V674.96L199.98 707.251L148.79 674.96V610.219Z" stroke="white" stroke-width="2"/>
<path d="M252.216 610.219L303.406 577.928L354.597 610.219V674.96L303.406 707.251L252.216 674.96V610.219Z" stroke="white" stroke-width="2"/>
<path d="M355.642 610.219L406.832 577.928L458.023 610.219V674.96L406.832 707.251L355.642 674.96V610.219Z" stroke="white" stroke-width="2"/>
<path d="M459.069 610.219L510.259 577.928L561.45 610.219V674.96L510.259 707.251L459.069 674.96V610.219Z" stroke="white" stroke-width="2"/>
<path d="M562.495 610.219L613.686 577.928L664.876 610.219V674.96L613.686 707.251L562.495 674.96V610.219Z" stroke="white" stroke-width="2"/>
<path d="M-6.91235 706.343L44.2779 674.052L95.4682 706.343V771.084L44.2779 803.375L-6.91235 771.084V706.343Z" stroke="white" stroke-width="2"/>
<path d="M96.5137 706.343L147.704 674.052L198.894 706.343V771.084L147.704 803.375L96.5137 771.084V706.343Z" stroke="white" stroke-width="2"/>
<path d="M199.94 706.343L251.13 674.052L302.32 706.343V771.084L251.13 803.375L199.94 771.084V706.343Z" stroke="white" stroke-width="2"/>
<path d="M303.366 706.343L354.556 674.052L405.747 706.343V771.084L354.556 803.375L303.366 771.084V706.343Z" stroke="white" stroke-width="2"/>
<path d="M406.793 706.343L457.983 674.052L509.174 706.343V771.084L457.983 803.375L406.793 771.084V706.343Z" stroke="white" stroke-width="2"/>
<path d="M510.219 706.343L561.409 674.052L612.6 706.343V771.084L561.409 803.375L510.219 771.084V706.343Z" stroke="white" stroke-width="2"/>
<path d="M-59.1885 802.468L-7.99827 770.177L43.192 802.468V867.209L-7.99827 899.5L-59.1885 867.209V802.468Z" stroke="white" stroke-width="2"/>
<path d="M44.2376 802.468L95.4279 770.177L146.618 802.468V867.209L95.4279 899.5L44.2376 867.209V802.468Z" stroke="white" stroke-width="2"/>
<path d="M147.664 802.468L198.854 770.177L250.044 802.468V867.209L198.854 899.5L147.664 867.209V802.468Z" stroke="white" stroke-width="2"/>
<path d="M251.09 802.468L302.28 770.177L353.47 802.468V867.209L302.28 899.5L251.09 867.209V802.468Z" stroke="white" stroke-width="2"/>
<path d="M354.517 802.468L405.707 770.177L456.897 802.468V867.209L405.707 899.5L354.517 867.209V802.468Z" stroke="white" stroke-width="2"/>
<path d="M457.943 802.468L509.133 770.177L560.323 802.468V867.209L509.133 899.5L457.943 867.209V802.468Z" stroke="white" stroke-width="2"/>
<path d="M561.706 802.468L612.896 770.177L664.086 802.468V867.209L612.896 899.5L561.706 867.209V802.468Z" stroke="white" stroke-width="2"/>
<path d="M665.132 802.468L716.322 770.177L767.513 802.468V867.209L716.322 899.5L665.132 867.209V802.468Z" stroke="white" stroke-width="2"/>
<path d="M768.558 802.468L819.748 770.177L870.939 802.468V867.209L819.748 899.5L768.558 867.209V802.468Z" stroke="white" stroke-width="2"/>
<path d="M871.985 802.468L923.175 770.177L974.366 802.468V867.209L923.175 899.5L871.985 867.209V802.468Z" stroke="white" stroke-width="2"/>
<path d="M-8.03851 898.592L43.1518 866.301L94.342 898.592V963.333L43.1518 995.624L-8.03851 963.333V898.592Z" stroke="white" stroke-width="2"/>
<path d="M95.3876 898.592L146.578 866.301L197.768 898.592V963.333L146.578 995.624L95.3876 963.333V898.592Z" stroke="white" stroke-width="2"/>
<path d="M198.814 898.592L250.004 866.301L301.194 898.592V963.333L250.004 995.624L198.814 963.333V898.592Z" stroke="white" stroke-width="2"/>
<path d="M302.241 898.592L353.431 866.301L404.621 898.592V963.333L353.431 995.624L302.241 963.333V898.592Z" stroke="white" stroke-width="2"/>
<path d="M405.667 898.592L456.857 866.301L508.047 898.592V963.333L456.857 995.624L405.667 963.333V898.592Z" stroke="white" stroke-width="2"/>
<path d="M-60.3147 994.716L-9.12443 962.425L42.0658 994.716V1059.46L-9.12443 1091.75L-60.3147 1059.46V994.716Z" stroke="white" stroke-width="2"/>
<path d="M43.1114 994.716L94.3017 962.425L145.492 994.716V1059.46L94.3017 1091.75L43.1114 1059.46V994.716Z" stroke="white" stroke-width="2"/>
<path d="M146.538 994.716L197.728 962.425L248.918 994.716V1059.46L197.728 1091.75L146.538 1059.46V994.716Z" stroke="white" stroke-width="2"/>
<path d="M249.964 994.716L301.155 962.425L352.345 994.716V1059.46L301.155 1091.75L249.964 1059.46V994.716Z" stroke="white" stroke-width="2"/>
<path d="M353.391 994.716L404.581 962.425L455.771 994.716V1059.46L404.581 1091.75L353.391 1059.46V994.716Z" stroke="white" stroke-width="2"/>
<path d="M457.154 995.598L508.344 963.307L559.534 995.598V1060.34L508.344 1092.63L457.154 1060.34V995.598Z" stroke="white" stroke-width="2"/>
<path d="M560.58 995.598L611.77 963.307L662.96 995.598V1060.34L611.77 1092.63L560.58 1060.34V995.598Z" stroke="white" stroke-width="2"/>
<path d="M664.007 995.598L715.197 963.307L766.387 995.598V1060.34L715.197 1092.63L664.007 1060.34V995.598Z" stroke="white" stroke-width="2"/>
<path d="M767.433 995.598L818.623 963.307L869.813 995.598V1060.34L818.623 1092.63L767.433 1060.34V995.598Z" stroke="white" stroke-width="2"/>
<path d="M870.859 995.598L922.049 963.307L973.239 995.598V1060.34L922.049 1092.63L870.859 1060.34V995.598Z" stroke="white" stroke-width="2"/>
<path d="M875.338 225.876L926.367 194.306L977.397 225.876V289.138L926.367 320.708L875.338 289.138V225.876Z" stroke="white" stroke-width="2"/>
<path d="M925.298 321.846L976.488 289.555L1027.68 321.846V386.587L976.488 418.878L925.298 386.587V321.846Z" stroke="white" stroke-width="2"/>
<path d="M770.81 417.971L822.001 385.679L873.191 417.971V482.711L822.001 515.003L770.81 482.711V417.971Z" stroke="white" stroke-width="2"/>
<path d="M874.237 417.971L925.427 385.679L976.617 417.971V482.711L925.427 515.003L874.237 482.711V417.971Z" stroke="white" stroke-width="2"/>
<path d="M718.534 514.977L769.725 482.686L820.915 514.977V579.718L769.725 612.009L718.534 579.718V514.977Z" stroke="white" stroke-width="2"/>
<path d="M821.96 514.977L873.151 482.686L924.341 514.977V579.718L873.151 612.009L821.96 579.718V514.977Z" stroke="white" stroke-width="2"/>
<path d="M925.387 514.977L976.577 482.686L1027.77 514.977V579.718L976.577 612.009L925.387 579.718V514.977Z" stroke="white" stroke-width="2"/>
<path d="M666.258 611.983L717.448 579.692L768.639 611.983V676.724L717.448 709.015L666.258 676.724V611.983Z" stroke="white" stroke-width="2"/>
<path d="M769.684 611.983L820.875 579.692L872.065 611.983V676.724L820.875 709.015L769.684 676.724V611.983Z" stroke="white" stroke-width="2"/>
<path d="M873.111 611.983L924.301 579.692L975.491 611.983V676.724L924.301 709.015L873.111 676.724V611.983Z" stroke="white" stroke-width="2"/>
<path d="M613.982 707.225L665.172 674.934L716.363 707.225V771.966L665.172 804.257L613.982 771.966V707.225Z" stroke="white" stroke-width="2"/>
<path d="M717.408 707.225L768.598 674.934L819.789 707.225V771.966L768.598 804.257L717.408 771.966V707.225Z" stroke="white" stroke-width="2"/>
<path d="M820.834 707.225L872.025 674.934L923.215 707.225V771.966L872.025 804.257L820.834 771.966V707.225Z" stroke="white" stroke-width="2"/>
<path d="M924.261 707.225L975.451 674.934L1026.64 707.225V771.966L975.451 804.257L924.261 771.966V707.225Z" stroke="white" stroke-width="2"/>
<path d="M508.65 899.474L559.84 867.183L611.03 899.474V964.215L559.84 996.506L508.65 964.215V899.474Z" stroke="white" stroke-width="2"/>
<path d="M612.076 899.474L663.266 867.183L714.456 899.474V964.215L663.266 996.506L612.076 964.215V899.474Z" stroke="white" stroke-width="2"/>
<path d="M715.502 899.474L766.692 867.183L817.882 899.474V964.215L766.692 996.506L715.502 964.215V899.474Z" stroke="white" stroke-width="2"/>
<path d="M818.929 899.474L870.119 867.183L921.309 899.474V964.215L870.119 996.506L818.929 964.215V899.474Z" stroke="white" stroke-width="2"/>
<path d="M922.355 899.474L973.545 867.183L1024.74 899.474V964.215L973.545 996.506L922.355 964.215V899.474Z" stroke="white" stroke-width="2"/>
</g>
</g>
<defs>
<radialGradient id="paint0_radial_3_1159" cx="0" cy="0" r="1" gradientUnits="userSpaceOnUse" gradientTransform="translate(473 537.5) rotate(90) scale(601.104 528.972)">
<stop/>
<stop offset="1" stop-opacity="0"/>
</radialGradient>
</defs>
</svg>
