<svg width="953" height="1154" viewBox="0 0 953 1154" fill="none" xmlns="http://www.w3.org/2000/svg">
<g opacity="0.7">
<mask id="mask0_27_3526" style="mask-type:alpha" maskUnits="userSpaceOnUse" x="0" y="0" width="953" height="1154">
<rect width="953" height="1154" fill="url(#paint0_radial_27_3526)" fill-opacity="0.3"/>
</mask>
<g mask="url(#mask0_27_3526)">
<path d="M-55.0966 35.8741L-3.52017 1.20492L48.0563 35.8741V105.491L-3.52017 140.16L-55.0966 105.491V35.8741Z" stroke="white" stroke-width="2"/>
<path d="M49.0948 35.8741L100.671 1.20492L152.248 35.8741V105.491L100.671 140.16L49.0948 105.491V35.8741Z" stroke="white" stroke-width="2"/>
<path d="M153.287 35.8741L204.863 1.20492L256.44 35.8741V105.491L204.863 140.16L153.287 105.491V35.8741Z" stroke="white" stroke-width="2"/>
<path d="M257.479 35.8741L309.055 1.20492L360.631 35.8741V105.491L309.055 140.16L257.479 105.491V35.8741Z" stroke="white" stroke-width="2"/>
<path d="M361.67 35.8741L413.246 1.20492L464.823 35.8741V105.491L413.246 140.16L361.67 105.491V35.8741Z" stroke="white" stroke-width="2"/>
<path d="M465.861 35.8741L517.438 1.20492L569.014 35.8741V105.491L517.438 140.16L465.861 105.491V35.8741Z" stroke="white" stroke-width="2"/>
<path d="M570.053 35.8741L621.629 1.20492L673.206 35.8741V105.491L621.629 140.16L570.053 105.491V35.8741Z" stroke="white" stroke-width="2"/>
<path d="M674.244 35.8741L725.821 1.20492L777.397 35.8741V105.491L725.821 140.16L674.244 105.491V35.8741Z" stroke="white" stroke-width="2"/>
<path d="M778.436 35.8741L830.013 1.20492L881.589 35.8741V105.491L830.013 140.16L778.436 105.491V35.8741Z" stroke="white" stroke-width="2"/>
<path d="M882.628 35.8741L934.204 1.20492L985.781 35.8741V105.491L934.204 140.16L882.628 105.491V35.8741Z" stroke="white" stroke-width="2"/>
<path d="M-3.56805 139.062L48.0084 104.393L99.5848 139.062V208.68L48.0084 243.349L-3.56805 208.68V139.062Z" stroke="white" stroke-width="2"/>
<path d="M100.624 139.062L152.201 104.393L203.777 139.062V208.68L152.201 243.349L100.624 208.68V139.062Z" stroke="white" stroke-width="2"/>
<path d="M204.815 139.062L256.392 104.393L307.968 139.062V208.68L256.392 243.349L204.815 208.68V139.062Z" stroke="white" stroke-width="2"/>
<path d="M309.007 139.062L360.583 104.393L412.16 139.062V208.68L360.583 243.349L309.007 208.68V139.062Z" stroke="white" stroke-width="2"/>
<path d="M413.198 139.062L464.775 104.393L516.351 139.062V208.68L464.775 243.349L413.198 208.68V139.062Z" stroke="white" stroke-width="2"/>
<path d="M517.39 139.062L568.966 104.393L620.543 139.062V208.68L568.966 243.349L517.39 208.68V139.062Z" stroke="white" stroke-width="2"/>
<path d="M621.581 139.062L673.158 104.393L724.734 139.062V208.68L673.158 243.349L621.581 208.68V139.062Z" stroke="white" stroke-width="2"/>
<path d="M725.773 139.062L777.35 104.393L828.926 139.062V208.68L777.35 243.349L725.773 208.68V139.062Z" stroke="white" stroke-width="2"/>
<path d="M829.965 139.062L881.541 104.393L933.118 139.062V208.68L881.541 243.349L829.965 208.68V139.062Z" stroke="white" stroke-width="2"/>
<path d="M-56.2311 242.251L-4.65469 207.582L46.9218 242.251V311.868L-4.65469 346.537L-56.2311 311.868V242.251Z" stroke="white" stroke-width="2"/>
<path d="M47.961 242.251L99.5374 207.582L151.114 242.251V311.868L99.5374 346.537L47.961 311.868V242.251Z" stroke="white" stroke-width="2"/>
<path d="M152.153 242.251L203.729 207.582L255.306 242.251V311.868L203.729 346.537L152.153 311.868V242.251Z" stroke="white" stroke-width="2"/>
<path d="M256.344 242.251L307.921 207.582L359.497 242.251V311.868L307.921 346.537L256.344 311.868V242.251Z" stroke="white" stroke-width="2"/>
<path d="M360.535 242.251L412.112 207.582L463.688 242.251V311.868L412.112 346.537L360.535 311.868V242.251Z" stroke="white" stroke-width="2"/>
<path d="M464.727 242.251L516.303 207.582L567.88 242.251V311.868L516.303 346.537L464.727 311.868V242.251Z" stroke="white" stroke-width="2"/>
<path d="M568.918 242.251L620.495 207.582L672.071 242.251V311.868L620.495 346.537L568.918 311.868V242.251Z" stroke="white" stroke-width="2"/>
<path d="M673.111 242.251L724.687 207.582L776.264 242.251V311.868L724.687 346.537L673.111 311.868V242.251Z" stroke="white" stroke-width="2"/>
<path d="M777.302 242.251L828.879 207.582L880.455 242.251V311.868L828.879 346.537L777.302 311.868V242.251Z" stroke="white" stroke-width="2"/>
<path d="M-4.70184 345.439L46.8746 310.77L98.451 345.439V415.056L46.8746 449.725L-4.70184 415.056V345.439Z" stroke="white" stroke-width="2"/>
<path d="M99.4896 345.439L151.066 310.77L202.642 345.439V415.056L151.066 449.725L99.4896 415.056V345.439Z" stroke="white" stroke-width="2"/>
<path d="M203.681 345.439L255.257 310.77L306.834 345.439V415.056L255.257 449.725L203.681 415.056V345.439Z" stroke="white" stroke-width="2"/>
<path d="M307.872 345.439L359.449 310.77L411.025 345.439V415.056L359.449 449.725L307.872 415.056V345.439Z" stroke="white" stroke-width="2"/>
<path d="M412.064 345.439L463.64 310.77L515.217 345.439V415.056L463.64 449.725L412.064 415.056V345.439Z" stroke="white" stroke-width="2"/>
<path d="M516.255 345.439L567.832 310.77L619.408 345.439V415.056L567.832 449.725L516.255 415.056V345.439Z" stroke="white" stroke-width="2"/>
<path d="M620.448 345.439L672.024 310.77L723.6 345.439V415.056L672.024 449.725L620.448 415.056V345.439Z" stroke="white" stroke-width="2"/>
<path d="M724.639 345.439L776.215 310.77L827.792 345.439V415.056L776.215 449.725L724.639 415.056V345.439Z" stroke="white" stroke-width="2"/>
<path d="M828.384 345.439L879.96 310.77L931.536 345.439V415.056L879.96 449.725L828.384 415.056V345.439Z" stroke="white" stroke-width="2"/>
<path d="M-57.3649 448.627L-5.78848 413.958L45.788 448.627V518.244L-5.78848 552.914L-57.3649 518.244V448.627Z" stroke="white" stroke-width="2"/>
<path d="M46.8265 448.627L98.4029 413.958L149.979 448.627V518.244L98.4029 552.914L46.8265 518.244V448.627Z" stroke="white" stroke-width="2"/>
<path d="M151.018 448.627L202.594 413.958L254.171 448.627V518.244L202.594 552.914L151.018 518.244V448.627Z" stroke="white" stroke-width="2"/>
<path d="M255.209 448.627L306.786 413.958L358.362 448.627V518.244L306.786 552.914L255.209 518.244V448.627Z" stroke="white" stroke-width="2"/>
<path d="M359.401 448.627L410.977 413.958L462.554 448.627V518.244L410.977 552.914L359.401 518.244V448.627Z" stroke="white" stroke-width="2"/>
<path d="M463.592 448.627L515.169 413.958L566.745 448.627V518.244L515.169 552.914L463.592 518.244V448.627Z" stroke="white" stroke-width="2"/>
<path d="M567.784 448.627L619.361 413.958L670.937 448.627V518.244L619.361 552.914L567.784 518.244V448.627Z" stroke="white" stroke-width="2"/>
<path d="M671.976 448.627L723.552 413.958L775.129 448.627V518.244L723.552 552.914L671.976 518.244V448.627Z" stroke="white" stroke-width="2"/>
<path d="M-5.83636 551.816L45.7401 517.146L97.3165 551.816V621.433L45.7401 656.102L-5.83636 621.433V551.816Z" stroke="white" stroke-width="2"/>
<path d="M98.355 551.816L149.931 517.146L201.508 551.816V621.433L149.931 656.102L98.355 621.433V551.816Z" stroke="white" stroke-width="2"/>
<path d="M202.546 551.816L254.123 517.146L305.699 551.816V621.433L254.123 656.102L202.546 621.433V551.816Z" stroke="white" stroke-width="2"/>
<path d="M306.738 551.816L358.315 517.146L409.891 551.816V621.433L358.315 656.102L306.738 621.433V551.816Z" stroke="white" stroke-width="2"/>
<path d="M410.93 551.816L462.506 517.146L514.082 551.816V621.433L462.506 656.102L410.93 621.433V551.816Z" stroke="white" stroke-width="2"/>
<path d="M515.122 551.816L566.698 517.146L618.275 551.816V621.433L566.698 656.102L515.122 621.433V551.816Z" stroke="white" stroke-width="2"/>
<path d="M619.313 551.816L670.889 517.146L722.466 551.816V621.433L670.889 656.102L619.313 621.433V551.816Z" stroke="white" stroke-width="2"/>
<path d="M-58.4995 655.004L-6.923 620.335L44.6534 655.004V724.621L-6.923 759.29L-58.4995 724.621V655.004Z" stroke="white" stroke-width="2"/>
<path d="M45.6922 655.004L97.2686 620.335L148.845 655.004V724.621L97.2686 759.29L45.6922 724.621V655.004Z" stroke="white" stroke-width="2"/>
<path d="M149.884 655.004L201.46 620.335L253.036 655.004V724.621L201.46 759.29L149.884 724.621V655.004Z" stroke="white" stroke-width="2"/>
<path d="M254.075 655.004L305.651 620.335L357.228 655.004V724.621L305.651 759.29L254.075 724.621V655.004Z" stroke="white" stroke-width="2"/>
<path d="M358.266 655.004L409.843 620.335L461.419 655.004V724.621L409.843 759.29L358.266 724.621V655.004Z" stroke="white" stroke-width="2"/>
<path d="M462.459 655.004L514.035 620.335L565.611 655.004V724.621L514.035 759.29L462.459 724.621V655.004Z" stroke="white" stroke-width="2"/>
<path d="M566.65 655.004L618.227 620.335L669.803 655.004V724.621L618.227 759.29L566.65 724.621V655.004Z" stroke="white" stroke-width="2"/>
<path d="M-6.97089 758.192L44.6056 723.523L96.182 758.192V827.809L44.6056 862.478L-6.97089 827.809V758.192Z" stroke="white" stroke-width="2"/>
<path d="M97.2205 758.192L148.797 723.523L200.373 758.192V827.809L148.797 862.478L97.2205 827.809V758.192Z" stroke="white" stroke-width="2"/>
<path d="M201.412 758.192L252.988 723.523L304.565 758.192V827.809L252.988 862.478L201.412 827.809V758.192Z" stroke="white" stroke-width="2"/>
<path d="M305.603 758.192L357.18 723.523L408.756 758.192V827.809L357.18 862.478L305.603 827.809V758.192Z" stroke="white" stroke-width="2"/>
<path d="M409.796 758.192L461.372 723.523L512.949 758.192V827.809L461.372 862.478L409.796 827.809V758.192Z" stroke="white" stroke-width="2"/>
<path d="M513.987 758.192L565.564 723.523L617.14 758.192V827.809L565.564 862.478L513.987 827.809V758.192Z" stroke="white" stroke-width="2"/>
<path d="M-59.634 861.38L-8.05753 826.711L43.5189 861.38V930.998L-8.05753 965.667L-59.634 930.998V861.38Z" stroke="white" stroke-width="2"/>
<path d="M44.5574 861.38L96.1339 826.711L147.71 861.38V930.998L96.1339 965.667L44.5574 930.998V861.38Z" stroke="white" stroke-width="2"/>
<path d="M148.749 861.38L200.326 826.711L251.902 861.38V930.998L200.326 965.667L148.749 930.998V861.38Z" stroke="white" stroke-width="2"/>
<path d="M252.94 861.38L304.517 826.711L356.093 861.38V930.998L304.517 965.667L252.94 930.998V861.38Z" stroke="white" stroke-width="2"/>
<path d="M357.133 861.38L408.709 826.711L460.286 861.38V930.998L408.709 965.667L357.133 930.998V861.38Z" stroke="white" stroke-width="2"/>
<path d="M461.324 861.38L512.9 826.711L564.477 861.38V930.998L512.9 965.667L461.324 930.998V861.38Z" stroke="white" stroke-width="2"/>
<path d="M565.855 861.38L617.431 826.711L669.008 861.38V930.998L617.431 965.667L565.855 930.998V861.38Z" stroke="white" stroke-width="2"/>
<path d="M670.046 861.38L721.623 826.711L773.199 861.38V930.998L721.623 965.667L670.046 930.998V861.38Z" stroke="white" stroke-width="2"/>
<path d="M774.238 861.38L825.814 826.711L877.391 861.38V930.998L825.814 965.667L774.238 930.998V861.38Z" stroke="white" stroke-width="2"/>
<path d="M878.43 861.38L930.006 826.711L981.583 861.38V930.998L930.006 965.667L878.43 930.998V861.38Z" stroke="white" stroke-width="2"/>
<path d="M-8.10541 964.569L43.471 929.9L95.0475 964.569V1034.19L43.471 1068.86L-8.10541 1034.19V964.569Z" stroke="white" stroke-width="2"/>
<path d="M96.086 964.569L147.662 929.9L199.239 964.569V1034.19L147.662 1068.86L96.086 1034.19V964.569Z" stroke="white" stroke-width="2"/>
<path d="M200.277 964.569L251.854 929.9L303.43 964.569V1034.19L251.854 1068.86L200.277 1034.19V964.569Z" stroke="white" stroke-width="2"/>
<path d="M304.47 964.569L356.046 929.9L407.622 964.569V1034.19L356.046 1068.86L304.47 1034.19V964.569Z" stroke="white" stroke-width="2"/>
<path d="M408.661 964.569L460.238 929.9L511.814 964.569V1034.19L460.238 1068.86L408.661 1034.19V964.569Z" stroke="white" stroke-width="2"/>
<path d="M-60.7682 1067.76L-9.1918 1033.09L42.3846 1067.76V1137.37L-9.1918 1172.04L-60.7682 1137.37V1067.76Z" stroke="white" stroke-width="2"/>
<path d="M43.4232 1067.76L94.9996 1033.09L146.576 1067.76V1137.37L94.9996 1172.04L43.4232 1137.37V1067.76Z" stroke="white" stroke-width="2"/>
<path d="M147.615 1067.76L199.191 1033.09L250.767 1067.76V1137.37L199.191 1172.04L147.615 1137.37V1067.76Z" stroke="white" stroke-width="2"/>
<path d="M251.807 1067.76L303.383 1033.09L354.96 1067.76V1137.37L303.383 1172.04L251.807 1137.37V1067.76Z" stroke="white" stroke-width="2"/>
<path d="M355.998 1067.76L407.575 1033.09L459.151 1067.76V1137.37L407.575 1172.04L355.998 1137.37V1067.76Z" stroke="white" stroke-width="2"/>
<path d="M460.529 1068.7L512.106 1034.03L563.682 1068.7V1138.32L512.106 1172.99L460.529 1138.32V1068.7Z" stroke="white" stroke-width="2"/>
<path d="M564.721 1068.7L616.297 1034.03L667.873 1068.7V1138.32L616.297 1172.99L564.721 1138.32V1068.7Z" stroke="white" stroke-width="2"/>
<path d="M668.912 1068.7L720.489 1034.03L772.065 1068.7V1138.32L720.489 1172.99L668.912 1138.32V1068.7Z" stroke="white" stroke-width="2"/>
<path d="M773.104 1068.7L824.681 1034.03L876.257 1068.7V1138.32L824.681 1172.99L773.104 1138.32V1068.7Z" stroke="white" stroke-width="2"/>
<path d="M877.295 1068.7L928.872 1034.03L980.448 1068.7V1138.32L928.872 1172.99L877.295 1138.32V1068.7Z" stroke="white" stroke-width="2"/>
<path d="M881.808 242.416L933.222 208.521L984.637 242.416V310.446L933.222 344.341L881.808 310.446V242.416Z" stroke="white" stroke-width="2"/>
<path d="M932.138 345.439L983.714 310.77L1035.29 345.439V415.056L983.714 449.725L932.138 415.056V345.439Z" stroke="white" stroke-width="2"/>
<path d="M776.507 448.627L828.083 413.958L879.66 448.627V518.244L828.083 552.914L776.507 518.244V448.627Z" stroke="white" stroke-width="2"/>
<path d="M880.698 448.627L932.275 413.958L983.851 448.627V518.244L932.275 552.914L880.698 518.244V448.627Z" stroke="white" stroke-width="2"/>
<path d="M723.844 552.762L775.42 518.093L826.997 552.762V622.379L775.42 657.049L723.844 622.379V552.762Z" stroke="white" stroke-width="2"/>
<path d="M828.035 552.762L879.612 518.093L931.188 552.762V622.379L879.612 657.049L828.035 622.379V552.762Z" stroke="white" stroke-width="2"/>
<path d="M932.227 552.762L983.803 518.093L1035.38 552.762V622.379L983.803 657.049L932.227 622.379V552.762Z" stroke="white" stroke-width="2"/>
<path d="M671.181 656.897L722.757 622.228L774.334 656.897V726.514L722.757 761.184L671.181 726.514V656.897Z" stroke="white" stroke-width="2"/>
<path d="M775.372 656.897L826.949 622.228L878.525 656.897V726.514L826.949 761.184L775.372 726.514V656.897Z" stroke="white" stroke-width="2"/>
<path d="M879.564 656.897L931.14 622.228L982.717 656.897V726.514L931.14 761.184L879.564 726.514V656.897Z" stroke="white" stroke-width="2"/>
<path d="M618.518 759.139L670.094 724.47L721.671 759.139V828.756L670.094 863.425L618.518 828.756V759.139Z" stroke="white" stroke-width="2"/>
<path d="M722.709 759.139L774.286 724.47L825.862 759.139V828.756L774.286 863.425L722.709 828.756V759.139Z" stroke="white" stroke-width="2"/>
<path d="M826.901 759.139L878.477 724.47L930.054 759.139V828.756L878.477 863.425L826.901 828.756V759.139Z" stroke="white" stroke-width="2"/>
<path d="M931.093 759.139L982.67 724.47L1034.25 759.139V828.756L982.67 863.425L931.093 828.756V759.139Z" stroke="white" stroke-width="2"/>
<path d="M512.406 965.515L563.983 930.846L615.559 965.515V1035.13L563.983 1069.8L512.406 1035.13V965.515Z" stroke="white" stroke-width="2"/>
<path d="M616.597 965.515L668.174 930.846L719.75 965.515V1035.13L668.174 1069.8L616.597 1035.13V965.515Z" stroke="white" stroke-width="2"/>
<path d="M720.789 965.515L772.365 930.846L823.942 965.515V1035.13L772.365 1069.8L720.789 1035.13V965.515Z" stroke="white" stroke-width="2"/>
<path d="M824.981 965.515L876.557 930.846L928.134 965.515V1035.13L876.557 1069.8L824.981 1035.13V965.515Z" stroke="white" stroke-width="2"/>
<path d="M929.172 965.515L980.749 930.846L1032.33 965.515V1035.13L980.749 1069.8L929.172 1035.13V965.515Z" stroke="white" stroke-width="2"/>
</g>
</g>
<defs>
<radialGradient id="paint0_radial_27_3526" cx="0" cy="0" r="1" gradientUnits="userSpaceOnUse" gradientTransform="translate(476.5 577) rotate(90) scale(645.278 532.886)">
<stop/>
<stop offset="1" stop-opacity="0"/>
</radialGradient>
</defs>
</svg>
